# xmcd CD database file
#
# Track frame offsets:
#	150
#	2951
#	30225
#	48741
#	71010
#	83878
#	92197
#	109174
#	121435
#	133434
#	149278
#	160325
#	174246
#	186993
#	200787
#	218116
#	226337
#
# Disc length: 3144 seconds
#
# Revision: 0
# Processed by: cddbd v1.5.2PL0 Copyright (c) Steve Scherf et al.
# Submitted via: CDex 1.51
#
DISCID=fc0c4611
DTITLE=Various Artist - Gladbacher Freunde
DYEAR=1998
DGENRE=Kölsches
TTITLE0=Bosbach, Wolfgang - Herzlich Willkommen
TTITLE1=Fly Dirt - Gladbacher Freunde
TTITLE2=Labbese - Gläbbisch, Bes Us Papier Jemaht
TTITLE3=Doof Noss - Ich Hatt´ Ein Armes Elternhaus
TTITLE4=Flöckchen - Wer Deiht Dat Sage
TTITLE5=Schmitter´s Kathrinchen - Ne Gläbbische Klaav
TTITLE6=Pimpfe - Maibaum Setze
TTITLE7=Kürten, Wilma - Fritzchens Kampf Mit Den Geschlechtern
TTITLE8=Rembold, Sarah - Der Fahrradhelm
TTITLE9=Rheinstone Cowboys - Die Rose Von Bensberg
TTITLE10=Klum, Heidi - Bergisch Gladbach, New York
TTITLE11=Finküberthurm - Renzel
TTITLE12=Linzenich, Ferdinand - In Der Nähe Von Köln
TTITLE13=Harlekin - Ist Es So Schwer Ein Lachen Zu Geben
TTITLE14=Krey, Franz Heinrich - Oh, Du Meine Güte
TTITLE15=Kierspel, August - De Fengk Freit and Op De Weed
TTITLE16=Hardy and Andy - Im Karneval Weed Alles Joot
EXTD=YEAR: 1998
EXTT0=
EXTT1=
EXTT2=
EXTT3=
EXTT4=
EXTT5=
EXTT6=
EXTT7=
EXTT8=
EXTT9=
EXTT10=
EXTT11=
EXTT12=
EXTT13=
EXTT14=
EXTT15=
EXTT16=
PLAYORDER=
